<mxfile host="app.diagrams.net" modified="2023-04-15T09:22:47.133Z" agent="Mozilla/5.0 (Windows NT 10.0; Win64; x64) AppleWebKit/537.36 (KHTML, like Gecko) Chrome/111.0.0.0 Safari/537.36" etag="-DXri-Nns1y70yrlo5Pa" version="21.1.8" type="device">
  <diagram name="Page-1" id="-vhVQeRAKBq5eTaKEK6-">
    <mxGraphModel dx="868" dy="2012" grid="1" gridSize="10" guides="1" tooltips="1" connect="1" arrows="1" fold="1" page="1" pageScale="1" pageWidth="827" pageHeight="1169" math="0" shadow="0">
      <root>
        <mxCell id="0" />
        <mxCell id="1" parent="0" />
        <mxCell id="qhMM-nUoxDcFUyitSMfE-1" value="" style="ellipse;whiteSpace=wrap;html=1;aspect=fixed;" vertex="1" parent="1">
          <mxGeometry y="-30" width="40" height="40" as="geometry" />
        </mxCell>
        <mxCell id="qhMM-nUoxDcFUyitSMfE-46" style="edgeStyle=orthogonalEdgeStyle;rounded=0;orthogonalLoop=1;jettySize=auto;html=1;exitX=0.5;exitY=1;exitDx=0;exitDy=0;entryX=0;entryY=0.5;entryDx=0;entryDy=0;" edge="1" parent="1" source="qhMM-nUoxDcFUyitSMfE-2" target="qhMM-nUoxDcFUyitSMfE-4">
          <mxGeometry relative="1" as="geometry" />
        </mxCell>
        <mxCell id="qhMM-nUoxDcFUyitSMfE-47" value="existing&lt;br&gt;customer" style="edgeLabel;html=1;align=center;verticalAlign=middle;resizable=0;points=[];" vertex="1" connectable="0" parent="qhMM-nUoxDcFUyitSMfE-46">
          <mxGeometry x="-0.0888" relative="1" as="geometry">
            <mxPoint x="30" y="2" as="offset" />
          </mxGeometry>
        </mxCell>
        <mxCell id="qhMM-nUoxDcFUyitSMfE-2" value="" style="rhombus;whiteSpace=wrap;html=1;" vertex="1" parent="1">
          <mxGeometry y="50" width="40" height="40" as="geometry" />
        </mxCell>
        <mxCell id="qhMM-nUoxDcFUyitSMfE-3" value="Register" style="rounded=1;whiteSpace=wrap;html=1;" vertex="1" parent="1">
          <mxGeometry x="100" y="40" width="120" height="60" as="geometry" />
        </mxCell>
        <mxCell id="qhMM-nUoxDcFUyitSMfE-15" style="edgeStyle=orthogonalEdgeStyle;rounded=0;orthogonalLoop=1;jettySize=auto;html=1;exitX=1;exitY=0.5;exitDx=0;exitDy=0;entryX=0;entryY=0.5;entryDx=0;entryDy=0;" edge="1" parent="1" source="qhMM-nUoxDcFUyitSMfE-4" target="qhMM-nUoxDcFUyitSMfE-12">
          <mxGeometry relative="1" as="geometry" />
        </mxCell>
        <mxCell id="qhMM-nUoxDcFUyitSMfE-4" value="Login" style="rounded=1;whiteSpace=wrap;html=1;" vertex="1" parent="1">
          <mxGeometry x="100" y="130" width="120" height="60" as="geometry" />
        </mxCell>
        <mxCell id="qhMM-nUoxDcFUyitSMfE-5" value="" style="endArrow=classic;html=1;rounded=0;exitX=0.5;exitY=1;exitDx=0;exitDy=0;entryX=0.5;entryY=0;entryDx=0;entryDy=0;" edge="1" parent="1" source="qhMM-nUoxDcFUyitSMfE-1" target="qhMM-nUoxDcFUyitSMfE-2">
          <mxGeometry width="50" height="50" relative="1" as="geometry">
            <mxPoint x="250" y="320" as="sourcePoint" />
            <mxPoint x="300" y="270" as="targetPoint" />
          </mxGeometry>
        </mxCell>
        <mxCell id="qhMM-nUoxDcFUyitSMfE-6" value="" style="endArrow=classic;html=1;rounded=0;exitX=1;exitY=0.5;exitDx=0;exitDy=0;entryX=0;entryY=0.5;entryDx=0;entryDy=0;" edge="1" parent="1" source="qhMM-nUoxDcFUyitSMfE-2" target="qhMM-nUoxDcFUyitSMfE-3">
          <mxGeometry width="50" height="50" relative="1" as="geometry">
            <mxPoint x="70" y="90" as="sourcePoint" />
            <mxPoint x="70" y="130" as="targetPoint" />
            <Array as="points">
              <mxPoint x="80" y="70" />
            </Array>
          </mxGeometry>
        </mxCell>
        <mxCell id="qhMM-nUoxDcFUyitSMfE-22" value="New&lt;br&gt;visitor" style="edgeLabel;html=1;align=center;verticalAlign=middle;resizable=0;points=[];" vertex="1" connectable="0" parent="qhMM-nUoxDcFUyitSMfE-6">
          <mxGeometry x="0.2029" y="3" relative="1" as="geometry">
            <mxPoint x="-6" y="3" as="offset" />
          </mxGeometry>
        </mxCell>
        <mxCell id="qhMM-nUoxDcFUyitSMfE-10" value="" style="endArrow=classic;html=1;rounded=0;exitX=0.5;exitY=1;exitDx=0;exitDy=0;entryX=0.5;entryY=0;entryDx=0;entryDy=0;" edge="1" parent="1" source="qhMM-nUoxDcFUyitSMfE-3" target="qhMM-nUoxDcFUyitSMfE-4">
          <mxGeometry width="50" height="50" relative="1" as="geometry">
            <mxPoint x="250" y="310" as="sourcePoint" />
            <mxPoint x="300" y="260" as="targetPoint" />
          </mxGeometry>
        </mxCell>
        <mxCell id="qhMM-nUoxDcFUyitSMfE-16" style="edgeStyle=orthogonalEdgeStyle;rounded=0;orthogonalLoop=1;jettySize=auto;html=1;exitX=1;exitY=0.5;exitDx=0;exitDy=0;entryX=0;entryY=0.5;entryDx=0;entryDy=0;" edge="1" parent="1" source="qhMM-nUoxDcFUyitSMfE-12" target="qhMM-nUoxDcFUyitSMfE-13">
          <mxGeometry relative="1" as="geometry" />
        </mxCell>
        <mxCell id="qhMM-nUoxDcFUyitSMfE-52" value="Search" style="edgeLabel;html=1;align=center;verticalAlign=middle;resizable=0;points=[];" vertex="1" connectable="0" parent="qhMM-nUoxDcFUyitSMfE-16">
          <mxGeometry x="-0.3801" y="-2" relative="1" as="geometry">
            <mxPoint as="offset" />
          </mxGeometry>
        </mxCell>
        <mxCell id="qhMM-nUoxDcFUyitSMfE-54" style="edgeStyle=orthogonalEdgeStyle;rounded=0;orthogonalLoop=1;jettySize=auto;html=1;exitX=0.5;exitY=1;exitDx=0;exitDy=0;entryX=0.5;entryY=0;entryDx=0;entryDy=0;" edge="1" parent="1" source="qhMM-nUoxDcFUyitSMfE-12" target="qhMM-nUoxDcFUyitSMfE-35">
          <mxGeometry relative="1" as="geometry" />
        </mxCell>
        <mxCell id="qhMM-nUoxDcFUyitSMfE-55" value="Check Cart" style="edgeLabel;html=1;align=center;verticalAlign=middle;resizable=0;points=[];" vertex="1" connectable="0" parent="qhMM-nUoxDcFUyitSMfE-54">
          <mxGeometry x="-0.3495" relative="1" as="geometry">
            <mxPoint as="offset" />
          </mxGeometry>
        </mxCell>
        <mxCell id="qhMM-nUoxDcFUyitSMfE-12" value="" style="rhombus;whiteSpace=wrap;html=1;" vertex="1" parent="1">
          <mxGeometry x="270" y="140" width="40" height="40" as="geometry" />
        </mxCell>
        <mxCell id="qhMM-nUoxDcFUyitSMfE-19" style="edgeStyle=orthogonalEdgeStyle;rounded=0;orthogonalLoop=1;jettySize=auto;html=1;exitX=0.5;exitY=0;exitDx=0;exitDy=0;entryX=0.5;entryY=1;entryDx=0;entryDy=0;" edge="1" parent="1" source="qhMM-nUoxDcFUyitSMfE-13" target="qhMM-nUoxDcFUyitSMfE-14">
          <mxGeometry relative="1" as="geometry" />
        </mxCell>
        <mxCell id="qhMM-nUoxDcFUyitSMfE-48" value="Found" style="edgeLabel;html=1;align=center;verticalAlign=middle;resizable=0;points=[];" vertex="1" connectable="0" parent="qhMM-nUoxDcFUyitSMfE-19">
          <mxGeometry x="0.2821" y="1" relative="1" as="geometry">
            <mxPoint as="offset" />
          </mxGeometry>
        </mxCell>
        <mxCell id="qhMM-nUoxDcFUyitSMfE-13" value="Search Product" style="rounded=1;whiteSpace=wrap;html=1;" vertex="1" parent="1">
          <mxGeometry x="370" y="160" width="120" height="60" as="geometry" />
        </mxCell>
        <mxCell id="qhMM-nUoxDcFUyitSMfE-28" style="edgeStyle=orthogonalEdgeStyle;rounded=0;orthogonalLoop=1;jettySize=auto;html=1;exitX=1;exitY=0.5;exitDx=0;exitDy=0;entryX=0;entryY=0.5;entryDx=0;entryDy=0;" edge="1" parent="1" source="qhMM-nUoxDcFUyitSMfE-14" target="qhMM-nUoxDcFUyitSMfE-25">
          <mxGeometry relative="1" as="geometry" />
        </mxCell>
        <mxCell id="qhMM-nUoxDcFUyitSMfE-14" value="View Clothes" style="rounded=1;whiteSpace=wrap;html=1;" vertex="1" parent="1">
          <mxGeometry x="370" y="-10" width="120" height="60" as="geometry" />
        </mxCell>
        <mxCell id="qhMM-nUoxDcFUyitSMfE-20" style="edgeStyle=orthogonalEdgeStyle;rounded=0;orthogonalLoop=1;jettySize=auto;html=1;exitX=0;exitY=0.5;exitDx=0;exitDy=0;entryX=0.5;entryY=0;entryDx=0;entryDy=0;" edge="1" parent="1" source="qhMM-nUoxDcFUyitSMfE-17" target="qhMM-nUoxDcFUyitSMfE-12">
          <mxGeometry relative="1" as="geometry" />
        </mxCell>
        <mxCell id="qhMM-nUoxDcFUyitSMfE-49" value="Not Found" style="edgeLabel;html=1;align=center;verticalAlign=middle;resizable=0;points=[];" vertex="1" connectable="0" parent="qhMM-nUoxDcFUyitSMfE-20">
          <mxGeometry x="-0.4498" relative="1" as="geometry">
            <mxPoint as="offset" />
          </mxGeometry>
        </mxCell>
        <mxCell id="qhMM-nUoxDcFUyitSMfE-17" value="" style="rhombus;whiteSpace=wrap;html=1;" vertex="1" parent="1">
          <mxGeometry x="410" y="100" width="40" height="40" as="geometry" />
        </mxCell>
        <mxCell id="qhMM-nUoxDcFUyitSMfE-29" style="edgeStyle=orthogonalEdgeStyle;rounded=0;orthogonalLoop=1;jettySize=auto;html=1;exitX=0.5;exitY=1;exitDx=0;exitDy=0;entryX=1;entryY=0.5;entryDx=0;entryDy=0;" edge="1" parent="1" source="qhMM-nUoxDcFUyitSMfE-25" target="qhMM-nUoxDcFUyitSMfE-13">
          <mxGeometry relative="1" as="geometry" />
        </mxCell>
        <mxCell id="qhMM-nUoxDcFUyitSMfE-50" value="Check other clothes" style="edgeLabel;html=1;align=center;verticalAlign=middle;resizable=0;points=[];" vertex="1" connectable="0" parent="qhMM-nUoxDcFUyitSMfE-29">
          <mxGeometry x="0.0033" y="-2" relative="1" as="geometry">
            <mxPoint as="offset" />
          </mxGeometry>
        </mxCell>
        <mxCell id="qhMM-nUoxDcFUyitSMfE-32" style="edgeStyle=orthogonalEdgeStyle;rounded=0;orthogonalLoop=1;jettySize=auto;html=1;exitX=1;exitY=0.5;exitDx=0;exitDy=0;entryX=0;entryY=0.5;entryDx=0;entryDy=0;" edge="1" parent="1" source="qhMM-nUoxDcFUyitSMfE-25" target="qhMM-nUoxDcFUyitSMfE-26">
          <mxGeometry relative="1" as="geometry" />
        </mxCell>
        <mxCell id="qhMM-nUoxDcFUyitSMfE-51" value="Choose Products" style="edgeLabel;html=1;align=center;verticalAlign=middle;resizable=0;points=[];" vertex="1" connectable="0" parent="qhMM-nUoxDcFUyitSMfE-32">
          <mxGeometry x="-0.1825" y="1" relative="1" as="geometry">
            <mxPoint as="offset" />
          </mxGeometry>
        </mxCell>
        <mxCell id="qhMM-nUoxDcFUyitSMfE-25" value="" style="rhombus;whiteSpace=wrap;html=1;" vertex="1" parent="1">
          <mxGeometry x="520" y="10" width="40" height="40" as="geometry" />
        </mxCell>
        <mxCell id="qhMM-nUoxDcFUyitSMfE-31" style="edgeStyle=orthogonalEdgeStyle;rounded=0;orthogonalLoop=1;jettySize=auto;html=1;exitX=0.5;exitY=1;exitDx=0;exitDy=0;entryX=0.5;entryY=0;entryDx=0;entryDy=0;" edge="1" parent="1" source="qhMM-nUoxDcFUyitSMfE-26" target="qhMM-nUoxDcFUyitSMfE-27">
          <mxGeometry relative="1" as="geometry" />
        </mxCell>
        <mxCell id="qhMM-nUoxDcFUyitSMfE-26" value="Add to Cart" style="rounded=1;whiteSpace=wrap;html=1;" vertex="1" parent="1">
          <mxGeometry x="690" width="120" height="60" as="geometry" />
        </mxCell>
        <mxCell id="qhMM-nUoxDcFUyitSMfE-30" style="edgeStyle=orthogonalEdgeStyle;rounded=0;orthogonalLoop=1;jettySize=auto;html=1;exitX=0;exitY=0.5;exitDx=0;exitDy=0;" edge="1" parent="1" source="qhMM-nUoxDcFUyitSMfE-27">
          <mxGeometry relative="1" as="geometry">
            <mxPoint x="490" y="189.76470588235293" as="targetPoint" />
          </mxGeometry>
        </mxCell>
        <mxCell id="qhMM-nUoxDcFUyitSMfE-41" style="edgeStyle=orthogonalEdgeStyle;rounded=0;orthogonalLoop=1;jettySize=auto;html=1;exitX=0.5;exitY=1;exitDx=0;exitDy=0;entryX=0.5;entryY=0;entryDx=0;entryDy=0;" edge="1" parent="1" source="qhMM-nUoxDcFUyitSMfE-27" target="qhMM-nUoxDcFUyitSMfE-35">
          <mxGeometry relative="1" as="geometry" />
        </mxCell>
        <mxCell id="qhMM-nUoxDcFUyitSMfE-53" value="Check Updated Cart" style="edgeLabel;html=1;align=center;verticalAlign=middle;resizable=0;points=[];" vertex="1" connectable="0" parent="qhMM-nUoxDcFUyitSMfE-41">
          <mxGeometry x="-0.3924" relative="1" as="geometry">
            <mxPoint as="offset" />
          </mxGeometry>
        </mxCell>
        <mxCell id="qhMM-nUoxDcFUyitSMfE-27" value="" style="rhombus;whiteSpace=wrap;html=1;" vertex="1" parent="1">
          <mxGeometry x="730" y="170" width="40" height="40" as="geometry" />
        </mxCell>
        <mxCell id="qhMM-nUoxDcFUyitSMfE-33" value="" style="ellipse;whiteSpace=wrap;html=1;aspect=fixed;" vertex="1" parent="1">
          <mxGeometry x="40" y="200" width="40" height="40" as="geometry" />
        </mxCell>
        <mxCell id="qhMM-nUoxDcFUyitSMfE-38" style="edgeStyle=orthogonalEdgeStyle;rounded=0;orthogonalLoop=1;jettySize=auto;html=1;exitX=0.5;exitY=0;exitDx=0;exitDy=0;entryX=0.5;entryY=1;entryDx=0;entryDy=0;" edge="1" parent="1" source="qhMM-nUoxDcFUyitSMfE-34" target="qhMM-nUoxDcFUyitSMfE-33">
          <mxGeometry relative="1" as="geometry" />
        </mxCell>
        <mxCell id="qhMM-nUoxDcFUyitSMfE-34" value="Check-Out" style="rounded=1;whiteSpace=wrap;html=1;" vertex="1" parent="1">
          <mxGeometry y="280" width="120" height="60" as="geometry" />
        </mxCell>
        <mxCell id="qhMM-nUoxDcFUyitSMfE-40" style="edgeStyle=orthogonalEdgeStyle;rounded=0;orthogonalLoop=1;jettySize=auto;html=1;exitX=1;exitY=0.5;exitDx=0;exitDy=0;entryX=0;entryY=0.5;entryDx=0;entryDy=0;" edge="1" parent="1" source="qhMM-nUoxDcFUyitSMfE-35" target="qhMM-nUoxDcFUyitSMfE-37">
          <mxGeometry relative="1" as="geometry" />
        </mxCell>
        <mxCell id="qhMM-nUoxDcFUyitSMfE-35" value="Shopping Cart List" style="rounded=1;whiteSpace=wrap;html=1;" vertex="1" parent="1">
          <mxGeometry x="200" y="280" width="120" height="60" as="geometry" />
        </mxCell>
        <mxCell id="qhMM-nUoxDcFUyitSMfE-44" style="edgeStyle=orthogonalEdgeStyle;rounded=0;orthogonalLoop=1;jettySize=auto;html=1;exitX=1;exitY=0.5;exitDx=0;exitDy=0;entryX=0.5;entryY=0;entryDx=0;entryDy=0;" edge="1" parent="1" source="qhMM-nUoxDcFUyitSMfE-36" target="qhMM-nUoxDcFUyitSMfE-12">
          <mxGeometry relative="1" as="geometry">
            <Array as="points">
              <mxPoint x="820" y="310" />
              <mxPoint x="820" y="-20" />
              <mxPoint x="290" y="-20" />
            </Array>
          </mxGeometry>
        </mxCell>
        <mxCell id="qhMM-nUoxDcFUyitSMfE-36" value="Remove Cloth" style="rounded=1;whiteSpace=wrap;html=1;" vertex="1" parent="1">
          <mxGeometry x="690" y="280" width="120" height="60" as="geometry" />
        </mxCell>
        <mxCell id="qhMM-nUoxDcFUyitSMfE-39" style="edgeStyle=orthogonalEdgeStyle;rounded=0;orthogonalLoop=1;jettySize=auto;html=1;exitX=0.5;exitY=1;exitDx=0;exitDy=0;entryX=0.5;entryY=1;entryDx=0;entryDy=0;" edge="1" parent="1" source="qhMM-nUoxDcFUyitSMfE-37" target="qhMM-nUoxDcFUyitSMfE-34">
          <mxGeometry relative="1" as="geometry" />
        </mxCell>
        <mxCell id="qhMM-nUoxDcFUyitSMfE-58" value="Finish Shopping" style="edgeLabel;html=1;align=center;verticalAlign=middle;resizable=0;points=[];" vertex="1" connectable="0" parent="qhMM-nUoxDcFUyitSMfE-39">
          <mxGeometry x="0.1527" relative="1" as="geometry">
            <mxPoint as="offset" />
          </mxGeometry>
        </mxCell>
        <mxCell id="qhMM-nUoxDcFUyitSMfE-42" style="edgeStyle=orthogonalEdgeStyle;rounded=0;orthogonalLoop=1;jettySize=auto;html=1;exitX=0.5;exitY=0;exitDx=0;exitDy=0;entryX=0.5;entryY=1;entryDx=0;entryDy=0;" edge="1" parent="1" source="qhMM-nUoxDcFUyitSMfE-37" target="qhMM-nUoxDcFUyitSMfE-13">
          <mxGeometry relative="1" as="geometry" />
        </mxCell>
        <mxCell id="qhMM-nUoxDcFUyitSMfE-57" value="Search more products" style="edgeLabel;html=1;align=center;verticalAlign=middle;resizable=0;points=[];" vertex="1" connectable="0" parent="qhMM-nUoxDcFUyitSMfE-42">
          <mxGeometry x="-0.2309" y="-1" relative="1" as="geometry">
            <mxPoint as="offset" />
          </mxGeometry>
        </mxCell>
        <mxCell id="qhMM-nUoxDcFUyitSMfE-43" style="edgeStyle=orthogonalEdgeStyle;rounded=0;orthogonalLoop=1;jettySize=auto;html=1;exitX=1;exitY=0.5;exitDx=0;exitDy=0;entryX=0;entryY=0.5;entryDx=0;entryDy=0;" edge="1" parent="1" source="qhMM-nUoxDcFUyitSMfE-37" target="qhMM-nUoxDcFUyitSMfE-36">
          <mxGeometry relative="1" as="geometry" />
        </mxCell>
        <mxCell id="qhMM-nUoxDcFUyitSMfE-37" value="" style="rhombus;whiteSpace=wrap;html=1;" vertex="1" parent="1">
          <mxGeometry x="410" y="290" width="40" height="40" as="geometry" />
        </mxCell>
      </root>
    </mxGraphModel>
  </diagram>
</mxfile>
